<svg xmlns="http://www.w3.org/2000/svg" width="1041" height="1007" viewBox="0 0 1041 1007">
<g>
<path d="M 594.20 691.93 C588.16,693.97 573.31,695.37 568.00,694.41 C556.24,692.27 548.62,688.64 541.22,681.65 C531.04,672.02 526.70,658.31 528.82,642.47 C531.56,621.94 545.86,608.51 567.86,605.80 C603.57,601.41 628.04,624.05 623.24,657.03 C620.73,674.24 610.61,686.41 594.20,691.93 ZM 291.00 693.95 C261.80,698.61 237.50,683.09 233.94,657.51 C231.74,641.69 236.03,627.98 246.21,618.36 C255.33,609.74 265.46,606.04 280.07,606.01 C300.62,605.97 315.16,613.44 322.93,628.02 C326.49,634.71 328.33,645.56 326.14,646.92 C325.26,647.46 325.26,648.44 326.12,650.91 C327.96,656.20 326.64,665.02 322.97,671.91 C316.82,683.43 304.76,691.75 291.00,693.95 ZM 690.35 693.05 C682.35,694.08 642.65,694.31 641.67,693.33 C641.30,692.97 641.00,673.35 641.00,649.75 L 641.00 606.82 L 666.25 607.23 C693.80,607.67 697.62,608.35 703.27,613.76 C711.67,621.80 709.61,640.19 699.73,645.50 C697.68,646.60 696.00,647.78 696.00,648.11 C696.00,648.45 698.00,649.49 700.45,650.43 C709.14,653.74 713.51,661.59 712.81,672.58 C712.07,684.25 704.40,691.24 690.35,693.05 ZM 739.78 684.25 L 736.30 693.50 L 729.15 693.79 C725.22,693.96 721.99,693.73 721.99,693.29 C721.98,692.86 729.74,673.25 739.24,649.72 L 756.50 606.93 L 764.94 607.22 L 773.37 607.50 L 790.62 649.95 C800.11,673.30 807.65,692.76 807.38,693.20 C806.53,694.56 788.37,694.16 787.28,692.75 C786.75,692.06 784.85,687.79 783.05,683.25 L 779.78 675.00 L 743.26 675.00 ZM 450.00 654.00 L 450.00 694.00 L 440.56 694.00 C430.85,694.00 428.87,693.27 431.49,690.65 C432.79,689.36 433.00,683.52 433.00,649.57 C433.00,623.86 432.65,610.00 432.00,610.00 C431.45,610.00 431.00,609.33 431.00,608.50 C431.00,607.27 432.72,607.00 440.50,607.00 L 450.00 607.00 L 450.00 643.00 L 470.35 643.00 C488.78,643.00 490.85,642.83 492.35,641.17 C493.73,639.64 494.00,636.92 494.00,624.67 C494.00,615.56 493.62,610.00 493.00,610.00 C492.45,610.00 492.00,609.33 492.00,608.50 C492.00,607.27 493.72,607.00 501.52,607.00 L 511.03 607.00 L 510.92 694.00 L 501.52 694.00 C491.84,694.00 489.87,693.27 492.49,690.65 C494.55,688.59 494.65,658.44 492.61,655.75 C491.42,654.18 489.12,654.00 470.64,654.00 ZM 567.63 681.59 C572.80,683.52 582.42,682.84 587.62,680.19 C597.09,675.36 602.17,665.09 602.30,650.50 C602.47,631.32 595.98,621.03 581.21,617.06 C578.86,616.42 577.20,615.48 577.53,614.95 C577.85,614.43 577.16,614.00 576.00,614.00 C574.84,614.00 574.12,614.39 574.42,614.87 C574.72,615.35 572.38,616.54 569.23,617.52 C564.97,618.84 562.18,620.60 558.35,624.40 C551.40,631.28 549.65,637.19 550.15,651.96 C550.48,661.50 550.85,663.32 553.51,668.49 C556.79,674.86 561.64,679.36 567.63,681.59 ZM 273.99 682.07 C277.95,683.27 285.16,683.04 289.25,681.57 C295.59,679.31 299.67,675.41 303.19,668.27 C306.36,661.82 306.50,661.05 306.50,649.92 C306.50,638.61 306.41,638.11 303.00,631.44 C298.06,621.75 293.47,618.66 283.30,618.15 C279.13,617.94 273.98,618.29 271.84,618.93 C259.69,622.57 252.44,638.98 255.01,657.05 C256.90,670.36 263.31,678.82 273.99,682.07 ZM 398.00 693.93 C374.35,697.76 352.93,688.02 344.30,669.50 C341.67,663.86 341.50,662.69 341.50,650.00 C341.50,636.83 341.58,636.34 344.72,629.93 C348.28,622.64 356.07,614.54 362.80,611.10 C373.82,605.48 395.06,604.40 407.39,608.83 C410.63,609.99 413.52,611.19 413.81,611.48 C414.10,611.77 413.28,614.27 411.98,617.04 C410.23,620.79 409.23,621.90 408.06,621.41 C399.22,617.71 386.41,616.89 378.88,619.54 C373.23,621.53 367.73,626.95 364.81,633.39 C362.80,637.85 362.51,640.03 362.55,650.50 C362.61,664.03 364.12,668.96 370.00,674.84 C375.97,680.82 380.44,682.48 390.50,682.49 C398.20,682.50 400.33,682.11 405.26,679.80 L 411.02 677.10 L 413.51 682.02 C414.88,684.72 416.00,687.11 416.00,687.33 C416.00,688.48 403.62,693.02 398.00,693.93 ZM 719.25 777.78 C721.09,778.67 720.12,778.87 714.00,778.90 C708.61,778.93 706.98,778.66 708.19,777.95 C710.09,776.84 711.57,769.36 710.53,766.10 C710.00,764.41 709.50,764.20 708.00,765.00 C703.23,767.55 695.30,765.15 693.19,760.53 C690.36,754.30 692.86,744.75 698.05,741.97 C699.23,741.34 702.40,740.97 705.09,741.16 C708.64,741.41 710.13,741.11 710.52,740.08 C711.48,737.59 709.84,730.01 708.14,729.06 C705.87,727.79 706.92,727.11 712.33,726.37 L 717.00 725.73 L 717.00 734.47 C717.00,742.42 717.16,743.15 718.75,742.47 C727.89,738.56 734.99,743.07 735.00,752.80 C735.00,761.57 729.49,766.75 721.33,765.63 L 717.00 765.04 L 717.00 770.87 C717.00,775.92 717.30,776.84 719.25,777.78 ZM 661.00 655.00 L 661.00 682.00 L 671.03 682.00 C686.90,682.00 692.00,678.61 692.00,668.09 C692.00,657.56 688.09,655.00 672.05,655.00 ZM 399.25 777.97 C400.90,778.63 399.49,778.88 394.00,778.91 C388.44,778.93 386.95,778.68 388.25,777.92 C389.80,777.02 390.00,775.09 390.00,761.00 C390.00,746.93 389.80,744.99 388.26,744.12 C385.89,742.80 386.65,742.31 392.39,741.46 C396.27,740.88 397.12,741.00 396.49,742.02 C395.88,743.01 396.25,743.13 398.09,742.54 C399.42,742.11 402.39,741.54 404.70,741.28 C408.20,740.89 409.31,741.22 411.37,743.28 C412.73,744.64 414.40,747.60 415.07,749.84 C417.69,758.57 410.96,766.59 401.75,765.74 L 397.00 765.29 L 397.00 771.18 C397.00,776.35 397.27,777.17 399.25,777.97 ZM 672.08 619.00 L 661.00 619.00 L 661.00 643.00 L 670.55 643.00 C684.81,643.00 689.00,640.10 689.00,630.20 C689.00,625.62 688.58,624.43 686.08,621.92 C683.20,619.04 682.99,619.00 672.08,619.00 ZM 500.39 763.91 C497.62,766.09 492.26,766.59 488.42,765.03 C484.51,763.45 481.00,758.17 481.00,753.87 C481.00,745.79 485.92,741.00 494.23,741.00 C499.18,741.00 502.36,742.86 504.51,747.01 C507.45,752.71 505.75,759.69 500.39,763.91 ZM 440.12 762.12 C436.94,765.29 435.53,766.00 432.37,766.00 C420.38,765.98 414.72,752.22 423.42,744.25 C426.46,741.47 427.71,741.00 432.09,741.00 C436.57,741.00 437.62,741.42 440.60,744.40 C443.60,747.40 444.00,748.42 444.00,753.02 C444.00,757.75 443.64,758.60 440.12,762.12 ZM 748.68 663.25 C749.30,664.32 775.00,664.18 775.00,663.11 C775.00,662.62 772.81,656.66 770.13,649.86 C767.45,643.06 764.66,635.81 763.92,633.74 C763.19,631.66 762.13,630.12 761.58,630.31 C760.37,630.71 748.05,662.17 748.68,663.25 ZM 681.03 764.48 C677.04,766.55 672.14,766.38 668.31,764.05 C664.10,761.48 663.00,759.18 663.00,752.97 C663.00,748.42 663.41,747.39 666.40,744.40 C669.39,741.41 670.42,741.00 675.00,741.00 C679.58,741.00 680.61,741.41 683.60,744.40 C686.49,747.29 687.00,748.50 687.00,752.45 C687.00,758.21 684.87,762.50 681.03,764.48 ZM 515.60 763.11 C517.25,764.93 517.17,765.00 513.65,765.00 C510.15,765.00 508.89,763.81 511.00,762.50 C511.55,762.16 512.00,758.01 512.00,753.27 C512.00,746.66 511.62,744.23 510.35,742.83 C508.77,741.09 508.88,741.00 512.60,741.01 C516.47,741.01 516.53,741.07 520.99,749.46 C523.47,754.11 525.79,757.59 526.17,757.21 C526.55,756.82 528.18,753.12 529.81,749.00 L 532.77 741.50 L 537.38 741.20 C540.15,741.01 542.00,741.31 542.00,741.95 C542.00,742.53 541.33,743.00 540.50,743.00 C539.27,743.00 539.00,744.77 539.00,752.95 C539.00,761.37 539.27,763.06 540.75,763.92 C542.06,764.68 540.75,764.95 535.53,764.97 C528.94,765.00 528.68,764.92 530.78,763.44 C532.71,762.09 533.00,760.98 533.00,754.94 C533.00,751.12 532.66,748.01 532.25,748.02 C531.84,748.04 529.91,751.75 527.98,756.27 C526.04,760.80 524.02,764.45 523.48,764.38 C522.94,764.32 520.71,760.94 518.50,756.88 L 514.50 749.50 L 514.20 755.36 C513.97,759.80 514.31,761.68 515.60,763.11 ZM 584.75 763.92 C586.09,764.70 585.13,764.95 580.71,764.97 C575.30,765.00 575.00,764.88 575.96,763.07 C576.53,762.00 577.00,757.42 577.00,752.89 C577.00,746.63 576.60,744.22 575.35,742.83 C573.76,741.08 573.95,741.00 579.85,741.00 C583.28,741.00 586.00,741.44 586.00,742.00 C586.00,742.55 585.33,743.00 584.50,743.00 C583.30,743.00 583.00,744.50 583.00,750.50 C583.00,754.62 583.14,758.00 583.32,758.00 C583.50,758.00 586.01,755.04 588.91,751.43 C593.98,745.10 594.11,744.78 592.43,742.93 C590.73,741.04 590.83,741.00 596.85,741.00 C600.28,741.00 603.00,741.44 603.00,742.00 C603.00,742.55 602.33,743.00 601.50,743.00 C600.27,743.00 600.00,744.77 600.00,752.95 C600.00,761.37 600.27,763.06 601.75,763.92 C603.09,764.70 602.13,764.95 597.71,764.97 C592.30,765.00 592.00,764.88 592.96,763.07 C594.25,760.67 594.34,749.00 593.08,749.00 C591.87,749.00 583.02,760.16 583.01,761.70 C583.00,762.36 583.79,763.36 584.75,763.92 ZM 458.75 763.92 C460.08,764.70 459.08,764.95 454.55,764.97 C449.92,764.99 448.87,764.73 449.80,763.80 C451.76,761.84 451.39,745.09 449.35,742.83 C447.76,741.07 447.96,741.00 454.40,741.00 C458.63,741.00 460.89,741.37 460.50,742.00 C460.16,742.55 459.23,743.00 458.44,743.00 C457.40,743.00 457.00,744.25 457.00,747.50 L 457.00 752.00 L 468.00 752.00 L 468.00 748.33 C468.00,746.31 467.26,743.83 466.35,742.83 C464.76,741.07 464.96,741.00 471.40,741.00 C475.63,741.00 477.89,741.37 477.50,742.00 C477.16,742.55 476.23,743.00 475.44,743.00 C474.28,743.00 474.00,744.95 474.00,752.95 C474.00,761.37 474.27,763.06 475.75,763.92 C477.09,764.70 476.13,764.95 471.71,764.97 C466.30,765.00 466.00,764.88 466.96,763.07 C467.53,762.00 468.00,759.30 468.00,757.07 L 468.00 753.00 L 457.00 753.00 L 457.00 757.95 C457.00,761.61 457.46,763.17 458.75,763.92 ZM 315.91 764.35 C311.17,767.67 305.00,765.79 305.00,761.02 C305.00,757.77 307.43,755.46 313.91,752.54 C317.93,750.73 318.09,750.49 317.80,746.58 C317.52,742.78 317.29,742.50 314.50,742.50 C312.03,742.50 311.54,742.88 311.72,744.65 C311.98,747.22 309.63,749.46 307.51,748.64 C306.68,748.32 306.00,747.16 306.00,746.06 C306.00,743.36 310.80,741.00 316.30,741.00 C322.96,741.00 324.00,742.74 324.00,753.83 C324.00,761.62 324.24,763.00 325.62,763.00 C326.95,763.00 327.02,763.27 326.00,764.50 C324.34,766.50 320.33,766.41 319.18,764.35 C318.32,762.82 318.09,762.82 315.91,764.35 ZM 757.02 764.49 C751.96,767.11 747.26,766.46 743.40,762.60 C740.51,759.71 740.00,758.50 740.00,754.55 C740.00,745.96 744.32,741.00 751.80,741.00 C755.28,741.00 756.74,741.59 759.08,743.92 C760.68,745.53 762.00,747.78 762.00,748.92 C762.00,750.86 761.44,751.00 753.50,751.00 C744.10,751.00 743.70,751.35 746.97,756.72 C749.68,761.16 754.15,762.08 760.37,759.48 C763.51,758.16 760.48,762.70 757.02,764.49 ZM 349.03 763.75 C344.95,766.51 340.52,766.62 336.31,764.05 C332.26,761.58 331.00,759.18 331.00,753.97 C331.00,746.14 336.22,741.00 344.18,741.00 C349.48,741.00 353.24,743.33 352.81,746.35 C352.59,747.90 351.80,748.50 350.00,748.50 C347.91,748.50 347.45,747.97 347.19,745.25 C346.96,742.86 346.38,742.00 345.02,742.00 C341.82,742.00 339.98,743.15 338.46,746.07 C333.89,754.91 341.03,764.10 349.66,760.50 C354.14,758.63 353.76,760.54 349.03,763.75 ZM 701.78 762.94 C703.96,764.21 707.07,764.24 709.00,763.02 C710.97,761.77 711.01,745.92 709.05,743.57 C707.09,741.20 702.31,741.59 700.60,744.25 C697.21,749.51 697.91,760.68 701.78,762.94 ZM 375.22 763.44 C377.33,764.92 377.12,765.00 371.02,765.00 C366.03,765.00 364.87,764.73 365.80,763.80 C366.57,763.03 367.00,759.09 367.00,752.80 L 367.00 743.00 L 364.45 743.00 C362.98,743.00 360.87,744.12 359.45,745.65 C357.16,748.12 357.00,748.16 357.00,746.23 C357.00,741.16 357.41,741.00 370.61,741.00 C379.85,741.00 383.00,741.32 383.01,742.25 C383.02,742.94 383.31,744.62 383.66,746.00 L 384.29 748.50 L 381.34 745.75 C379.63,744.16 377.25,743.00 375.70,743.00 L 373.00 743.00 L 373.00 752.44 C373.00,761.07 373.19,762.02 375.22,763.44 ZM 429.78 763.78 C432.32,765.71 434.31,764.87 436.31,761.00 C438.46,756.85 438.06,748.27 435.54,744.42 C433.53,741.35 429.64,741.25 427.56,744.22 C424.55,748.52 425.95,760.87 429.78,763.78 ZM 399.14 763.74 C402.49,765.49 403.34,765.33 406.08,762.42 C409.27,759.02 409.58,749.40 406.60,746.10 C404.56,743.85 398.63,743.17 397.46,745.06 C397.10,745.64 396.80,749.80 396.79,754.31 C396.78,761.91 396.95,762.59 399.14,763.74 ZM 673.26 763.47 C676.07,765.44 676.32,765.41 678.60,762.89 C681.51,759.66 681.34,746.90 678.34,743.90 C674.12,739.67 668.99,743.74 669.01,751.30 C669.01,756.42 670.90,761.82 673.26,763.47 ZM 492.23 764.33 C494.41,765.21 494.94,765.06 497.00,763.00 C498.61,761.39 499.00,759.68 498.99,754.25 C498.97,746.16 497.45,742.62 493.82,742.19 C489.96,741.74 488.00,745.14 488.00,752.27 C488.00,758.11 489.85,763.37 492.23,764.33 ZM 718.65 763.73 C721.16,765.57 722.79,765.31 725.48,762.61 C728.47,759.62 729.55,754.19 728.05,749.65 C726.54,745.07 724.85,743.79 720.82,744.18 L 717.50 744.50 L 717.21 753.48 C716.96,761.07 717.19,762.66 718.65,763.73 ZM 290.75 763.92 C292.05,764.68 290.72,764.93 285.50,764.89 C281.65,764.86 279.17,764.59 280.00,764.27 C282.57,763.29 282.97,761.76 282.98,752.87 C283.00,745.05 282.79,744.10 280.75,742.67 C278.65,741.21 279.22,741.10 289.67,741.05 L 300.84 741.00 L 301.52 744.07 C302.43,748.21 301.56,748.74 298.80,745.72 C297.44,744.23 294.97,742.98 292.75,742.66 L 289.00 742.13 L 289.00 752.51 C289.00,761.35 289.26,763.05 290.75,763.92 ZM 645.81 763.95 C647.06,764.68 646.00,764.95 641.71,764.97 C636.30,765.00 636.00,764.88 636.96,763.07 C637.53,762.00 638.00,757.42 638.00,752.89 C638.00,746.63 637.60,744.22 636.35,742.83 C634.76,741.08 634.95,741.00 640.85,741.00 C644.28,741.00 647.00,741.44 647.00,742.00 C647.00,742.55 646.34,743.00 645.53,743.00 C643.19,743.00 643.46,762.58 645.81,763.95 ZM 658.23 761.16 L 661.01 765.00 L 655.31 765.00 C650.94,765.00 649.88,764.72 650.77,763.83 C651.67,762.93 651.45,761.81 649.82,759.08 C648.65,757.11 647.12,755.02 646.42,754.44 C645.42,753.61 645.89,752.44 648.58,749.03 C651.83,744.93 651.93,744.58 650.36,742.84 C648.76,741.07 648.91,741.00 654.35,741.00 C657.46,741.00 660.00,741.45 660.00,742.00 C660.00,742.55 659.41,743.00 658.69,743.00 C657.96,743.00 656.09,744.34 654.52,745.97 L 651.67 748.95 L 653.56 753.13 C654.60,755.43 656.70,759.04 658.23,761.16 ZM 745.00 748.55 C745.00,748.80 747.25,749.00 750.00,749.00 C754.60,749.00 755.00,748.81 755.00,746.62 C755.00,741.40 748.42,740.58 746.17,745.52 C745.53,746.94 745.00,748.30 745.00,748.55 ZM 311.92 761.40 C313.37,763.15 314.05,763.30 316.42,762.39 C317.57,761.95 318.00,760.42 318.00,756.77 C318.00,751.80 317.98,751.77 315.75,753.24 C314.51,754.05 312.85,755.86 312.05,757.26 C310.84,759.38 310.82,760.08 311.92,761.40 ZM 618.67 641.33 C620.08,642.74 621.00,641.89 620.92,639.25 C620.88,637.74 620.61,637.07 620.34,637.76 C620.06,638.45 619.42,638.76 618.91,638.45 C617.87,637.80 617.65,640.32 618.67,641.33 ZM 693.18 612.33 C692.83,614.14 695.47,614.67 696.50,613.00 C696.84,612.45 696.61,612.00 696.00,612.00 C695.39,612.00 695.20,611.49 695.58,610.87 C696.00,610.18 695.73,609.92 694.89,610.20 C694.13,610.46 693.35,611.42 693.18,612.33 Z" fill="rgb(76,87,61)"/>
<path d="M 430.00 607.00 L 440.00 607.00 C432.65,607.01 431.00,607.30 431.00,608.50 C431.00,609.33 431.45,610.00 432.00,610.00 C432.65,610.00 433.00,623.86 433.00,649.57 C433.00,683.52 432.79,689.36 431.49,690.65 C430.98,691.16 430.65,691.59 430.51,691.97 C430.22,687.11 430.00,669.92 430.00,649.83 ZM 450.00 654.00 L 470.64 654.00 C489.12,654.00 491.42,654.18 492.61,655.75 C494.65,658.44 494.55,688.59 492.49,690.65 C491.94,691.20 491.60,691.66 491.48,692.06 L 491.23 674.25 L 490.96 655.00 L 450.00 655.00 ZM 491.00 607.00 L 501.02 607.00 C493.65,607.01 492.00,607.30 492.00,608.50 C492.00,609.33 492.45,610.00 493.00,610.00 C493.62,610.00 494.00,615.56 494.00,624.67 C494.00,636.92 493.73,639.64 492.35,641.17 C491.99,641.56 491.61,641.86 491.00,642.11 ZM 324.97 632.78 C326.95,637.99 328.00,643.78 328.00,650.00 C328.00,655.37 327.20,660.44 325.68,665.10 C327.16,659.89 327.39,654.56 326.12,650.91 C325.26,648.44 325.26,647.46 326.14,646.92 C327.86,645.85 327.10,638.94 324.97,632.78 ZM 583.89 617.88 C581.75,617.31 579.45,617.02 577.00,617.02 C571.71,617.01 568.09,617.61 564.80,619.34 C566.15,618.60 567.58,618.03 569.23,617.52 C572.38,616.54 574.72,615.35 574.42,614.87 C574.12,614.39 574.84,614.00 576.00,614.00 C577.16,614.00 577.85,614.43 577.53,614.95 C577.20,615.48 578.86,616.42 581.21,617.06 C582.14,617.31 583.03,617.58 583.89,617.88 ZM 618.67 641.33 C617.65,640.32 617.87,637.80 618.91,638.45 C619.42,638.76 620.06,638.45 620.34,637.76 C620.61,637.07 620.88,637.74 620.92,639.25 C621.00,641.89 620.08,642.74 618.67,641.33 ZM 693.18 612.33 C693.35,611.42 694.13,610.46 694.89,610.20 C695.73,609.92 696.00,610.18 695.58,610.87 C695.20,611.49 695.39,612.00 696.00,612.00 C696.61,612.00 696.84,612.45 696.50,613.00 C695.47,614.67 692.83,614.14 693.18,612.33 ZM 281.81 606.03 C285.82,606.06 289.82,606.40 293.57,607.09 C299.76,608.24 305.31,610.51 310.04,613.72 C302.63,608.83 293.17,606.25 281.81,606.03 ZM 595.08 625.04 C600.11,630.70 602.40,639.00 602.30,650.50 C602.39,639.47 599.85,630.79 595.08,625.04 ZM 291.00 693.95 C301.32,692.30 310.70,687.21 317.33,679.89 C310.90,687.21 301.86,692.22 291.00,693.95 ZM 248.28 616.50 C250.83,614.22 253.46,612.30 255.79,611.11 C257.47,610.25 259.37,609.49 261.42,608.84 C256.61,610.55 252.33,613.07 248.28,616.50 ZM 234.98 637.16 C235.71,634.30 236.68,631.62 237.88,629.24 C238.63,627.76 239.65,626.17 240.85,624.56 C238.19,628.36 236.23,632.58 234.98,637.16 ZM 708.43 625.73 C709.19,633.59 706.13,642.06 699.73,645.50 C705.96,642.15 709.08,633.60 708.43,625.73 ZM 430.57 692.76 C430.99,693.37 432.44,693.71 435.15,693.88 C432.65,693.76 430.89,693.56 430.67,693.33 C430.63,693.30 430.60,693.11 430.57,692.76 ZM 491.49 692.62 C491.66,693.03 492.24,693.34 493.29,693.55 L 491.50 693.50 ZM 508.49 694.00 L 510.92 694.00 L 510.92 694.07 ZM 689.63 608.17 C692.87,608.50 695.15,608.97 696.99,609.65 C695.11,608.98 692.80,608.51 689.63,608.17 Z" fill="rgb(83,94,69)"/>
<path d="M 557.50 542.57 C546.91,544.48 506.92,545.37 494.57,543.96 C463.72,540.46 432.69,528.74 411.00,512.40 C398.96,503.33 383.96,487.78 376.76,476.88 C359.47,450.74 352.00,423.50 352.00,386.62 C352.00,353.10 357.63,329.24 371.30,304.79 C380.32,288.67 399.16,268.28 415.31,257.17 C445.53,236.38 483.30,226.84 529.50,228.32 C568.55,229.58 598.86,238.61 626.24,257.15 C644.11,269.25 663.72,291.39 673.01,309.96 C686.08,336.10 691.88,369.00 689.18,401.73 C685.82,442.50 672.56,472.63 646.57,498.54 C623.01,522.03 595.19,535.78 557.50,542.57 ZM 508.47 501.03 C523.25,503.12 545.26,500.08 558.41,494.11 C575.16,486.52 590.12,471.74 599.03,454.00 C615.68,420.82 617.50,364.75 603.13,327.49 C594.24,304.45 576.54,285.66 556.34,277.81 C545.02,273.41 536.41,272.00 521.00,272.00 C494.64,272.00 477.94,277.95 461.53,293.20 C444.54,308.99 433.53,332.68 430.04,360.97 C428.48,373.69 428.75,402.55 430.55,414.68 C436.07,451.84 453.86,479.57 480.50,492.51 C489.81,497.03 498.08,499.55 508.47,501.03 Z" fill="rgb(106,31,43)"/>
<path d="M 0.00 503.50 L 0.00 0.00 L 520.50 0.00 L 1041.00 0.00 L 1041.00 503.50 L 1041.00 1007.00 L 520.50 1007.00 L 0.00 1007.00 L 0.00 503.50 ZM 399.25 777.97 C397.27,777.17 397.00,776.35 397.00,771.18 L 397.00 765.29 L 401.75 765.74 C410.96,766.59 417.69,758.57 415.07,749.84 C414.40,747.60 412.73,744.64 411.37,743.28 C409.31,741.22 408.20,740.89 404.70,741.28 C402.39,741.54 399.42,742.11 398.09,742.54 C396.25,743.13 395.88,743.01 396.49,742.02 C397.12,741.00 396.27,740.88 392.39,741.46 C386.65,742.31 385.89,742.80 388.26,744.12 C389.80,744.99 390.00,746.93 390.00,761.00 C390.00,775.09 389.80,777.02 388.25,777.92 C386.95,778.68 388.44,778.93 394.00,778.91 C399.49,778.88 400.90,778.63 399.25,777.97 ZM 719.25 777.78 C717.30,776.84 717.00,775.92 717.00,770.87 L 717.00 765.04 L 721.33 765.63 C729.49,766.75 735.00,761.57 735.00,752.80 C734.99,743.07 727.89,738.56 718.75,742.47 C717.16,743.15 717.00,742.42 717.00,734.47 L 717.00 725.73 L 712.33 726.37 C706.92,727.11 705.87,727.79 708.14,729.06 C709.84,730.01 711.48,737.59 710.52,740.08 C710.13,741.11 708.64,741.41 705.09,741.16 C702.40,740.97 699.23,741.34 698.05,741.97 C692.86,744.75 690.36,754.30 693.19,760.53 C695.30,765.15 703.23,767.55 708.00,765.00 C709.50,764.20 710.00,764.41 710.53,766.10 C711.57,769.36 710.09,776.84 708.19,777.95 C706.98,778.66 708.61,778.93 714.00,778.90 C720.12,778.87 721.09,778.67 719.25,777.78 ZM 315.91 764.35 C318.09,762.82 318.32,762.82 319.18,764.35 C320.33,766.41 324.34,766.50 326.00,764.50 C327.02,763.27 326.95,763.00 325.62,763.00 C324.24,763.00 324.00,761.62 324.00,753.83 C324.00,742.74 322.96,741.00 316.30,741.00 C310.80,741.00 306.00,743.36 306.00,746.06 C306.00,747.16 306.68,748.32 307.51,748.64 C309.63,749.46 311.98,747.22 311.72,744.65 C311.54,742.88 312.03,742.50 314.50,742.50 C317.29,742.50 317.52,742.78 317.80,746.58 C318.09,750.49 317.93,750.73 313.91,752.54 C307.43,755.46 305.00,757.77 305.00,761.02 C305.00,765.79 311.17,767.67 315.91,764.35 ZM 349.03 763.75 C353.76,760.54 354.14,758.63 349.66,760.50 C341.03,764.10 333.89,754.91 338.46,746.07 C339.98,743.15 341.82,742.00 345.02,742.00 C346.38,742.00 346.96,742.86 347.19,745.25 C347.45,747.97 347.91,748.50 350.00,748.50 C351.80,748.50 352.59,747.90 352.81,746.35 C353.24,743.33 349.48,741.00 344.18,741.00 C336.22,741.00 331.00,746.14 331.00,753.97 C331.00,759.18 332.26,761.58 336.31,764.05 C340.52,766.62 344.95,766.51 349.03,763.75 ZM 440.12 762.12 C443.64,758.60 444.00,757.75 444.00,753.02 C444.00,748.42 443.60,747.40 440.60,744.40 C437.62,741.42 436.57,741.00 432.09,741.00 C427.71,741.00 426.46,741.47 423.42,744.25 C414.72,752.22 420.38,765.98 432.37,766.00 C435.53,766.00 436.94,765.29 440.12,762.12 ZM 500.39 763.91 C505.75,759.69 507.45,752.71 504.51,747.01 C502.36,742.86 499.18,741.00 494.23,741.00 C485.92,741.00 481.00,745.79 481.00,753.87 C481.00,758.17 484.51,763.45 488.42,765.03 C492.26,766.59 497.62,766.09 500.39,763.91 ZM 681.03 764.48 C684.87,762.50 687.00,758.21 687.00,752.45 C687.00,748.50 686.49,747.29 683.60,744.40 C680.61,741.41 679.58,741.00 675.00,741.00 C670.42,741.00 669.39,741.41 666.40,744.40 C663.41,747.39 663.00,748.42 663.00,752.97 C663.00,759.18 664.10,761.48 668.31,764.05 C672.14,766.38 677.04,766.55 681.03,764.48 ZM 757.02 764.49 C760.48,762.70 763.51,758.16 760.37,759.48 C754.15,762.08 749.68,761.16 746.97,756.72 C743.70,751.35 744.10,751.00 753.50,751.00 C761.44,751.00 762.00,750.86 762.00,748.92 C762.00,747.78 760.68,745.53 759.08,743.92 C756.74,741.59 755.28,741.00 751.80,741.00 C744.32,741.00 740.00,745.96 740.00,754.55 C740.00,758.50 740.51,759.71 743.40,762.60 C747.26,766.46 751.96,767.11 757.02,764.49 ZM 290.75 763.92 C289.26,763.05 289.00,761.35 289.00,752.51 L 289.00 742.13 L 292.75 742.66 C294.97,742.98 297.44,744.23 298.80,745.72 C301.56,748.74 302.43,748.21 301.52,744.07 L 300.84 741.00 L 289.67 741.05 C279.22,741.10 278.65,741.21 280.75,742.67 C282.79,744.10 283.00,745.05 282.98,752.87 C282.97,761.76 282.57,763.29 280.00,764.27 C279.17,764.59 281.65,764.86 285.50,764.89 C290.72,764.93 292.05,764.68 290.75,763.92 ZM 375.22 763.44 C373.19,762.02 373.00,761.07 373.00,752.44 L 373.00 743.00 L 375.70 743.00 C377.25,743.00 379.63,744.16 381.34,745.75 L 384.29 748.50 L 383.66 746.00 C383.31,744.62 383.02,742.94 383.01,742.25 C383.00,741.32 379.85,741.00 370.61,741.00 C357.41,741.00 357.00,741.16 357.00,746.23 C357.00,748.16 357.16,748.12 359.45,745.65 C360.87,744.12 362.98,743.00 364.45,743.00 L 367.00 743.00 L 367.00 752.80 C367.00,759.09 366.57,763.03 365.80,763.80 C364.87,764.73 366.03,765.00 371.02,765.00 C377.12,765.00 377.33,764.92 375.22,763.44 ZM 458.75 763.92 C457.46,763.17 457.00,761.61 457.00,757.95 L 457.00 753.00 L 462.50 753.00 L 468.00 753.00 L 468.00 757.07 C468.00,759.30 467.53,762.00 466.96,763.07 C466.00,764.88 466.30,765.00 471.71,764.97 C476.13,764.95 477.09,764.70 475.75,763.92 C474.27,763.06 474.00,761.37 474.00,752.95 C474.00,744.95 474.28,743.00 475.44,743.00 C476.23,743.00 477.16,742.55 477.50,742.00 C477.89,741.37 475.63,741.00 471.40,741.00 C464.96,741.00 464.76,741.07 466.35,742.83 C467.26,743.83 468.00,746.31 468.00,748.33 L 468.00 752.00 L 462.50 752.00 L 457.00 752.00 L 457.00 747.50 C457.00,744.25 457.40,743.00 458.44,743.00 C459.23,743.00 460.16,742.55 460.50,742.00 C460.89,741.37 458.63,741.00 454.40,741.00 C447.96,741.00 447.76,741.07 449.35,742.83 C451.39,745.09 451.76,761.84 449.80,763.80 C448.87,764.73 449.92,764.99 454.55,764.97 C459.08,764.95 460.08,764.70 458.75,763.92 ZM 515.60 763.11 C514.31,761.68 513.97,759.80 514.20,755.36 L 514.50 749.50 L 518.50 756.88 C520.71,760.94 522.94,764.32 523.48,764.38 C524.02,764.45 526.04,760.80 527.98,756.27 C529.91,751.75 531.84,748.04 532.25,748.02 C532.66,748.01 533.00,751.12 533.00,754.94 C533.00,760.98 532.71,762.09 530.78,763.44 C528.68,764.92 528.94,765.00 535.53,764.97 C540.75,764.95 542.06,764.68 540.75,763.92 C539.27,763.06 539.00,761.37 539.00,752.95 C539.00,744.77 539.27,743.00 540.50,743.00 C541.33,743.00 542.00,742.53 542.00,741.95 C542.00,741.31 540.15,741.01 537.38,741.20 L 532.77 741.50 L 529.81 749.00 C528.18,753.12 526.55,756.82 526.17,757.21 C525.79,757.59 523.47,754.11 520.99,749.46 C516.53,741.07 516.47,741.01 512.60,741.01 C508.88,741.00 508.77,741.09 510.35,742.83 C511.62,744.23 512.00,746.66 512.00,753.27 C512.00,758.01 511.55,762.16 511.00,762.50 C508.89,763.81 510.15,765.00 513.65,765.00 C517.17,765.00 517.25,764.93 515.60,763.11 ZM 584.75 763.92 C583.79,763.36 583.00,762.36 583.01,761.70 C583.02,760.16 591.87,749.00 593.08,749.00 C594.34,749.00 594.25,760.67 592.96,763.07 C592.00,764.88 592.30,765.00 597.71,764.97 C602.13,764.95 603.09,764.70 601.75,763.92 C600.27,763.06 600.00,761.37 600.00,752.95 C600.00,744.77 600.27,743.00 601.50,743.00 C602.33,743.00 603.00,742.55 603.00,742.00 C603.00,741.44 600.28,741.00 596.85,741.00 C590.83,741.00 590.73,741.04 592.43,742.93 C594.11,744.78 593.98,745.10 588.91,751.43 C586.01,755.04 583.50,758.00 583.32,758.00 C583.14,758.00 583.00,754.62 583.00,750.50 C583.00,744.50 583.30,743.00 584.50,743.00 C585.33,743.00 586.00,742.55 586.00,742.00 C586.00,741.44 583.28,741.00 579.85,741.00 C573.95,741.00 573.76,741.08 575.35,742.83 C576.60,744.22 577.00,746.63 577.00,752.89 C577.00,757.42 576.53,762.00 575.96,763.07 C575.00,764.88 575.30,765.00 580.71,764.97 C585.13,764.95 586.09,764.70 584.75,763.92 ZM 645.81 763.95 C643.46,762.58 643.19,743.00 645.53,743.00 C646.34,743.00 647.00,742.55 647.00,742.00 C647.00,741.44 644.28,741.00 640.85,741.00 C634.95,741.00 634.76,741.08 636.35,742.83 C637.60,744.22 638.00,746.63 638.00,752.89 C638.00,757.42 637.53,762.00 636.96,763.07 C636.00,764.88 636.30,765.00 641.71,764.97 C646.00,764.95 647.06,764.68 645.81,763.95 ZM 658.23 761.16 C656.70,759.04 654.60,755.43 653.56,753.13 L 651.67 748.95 L 654.52 745.97 C656.09,744.34 657.96,743.00 658.69,743.00 C659.41,743.00 660.00,742.55 660.00,742.00 C660.00,741.45 657.46,741.00 654.35,741.00 C648.91,741.00 648.76,741.07 650.36,742.84 C651.93,744.58 651.83,744.93 648.58,749.03 C645.89,752.44 645.42,753.61 646.42,754.44 C647.12,755.02 648.65,757.11 649.82,759.08 C651.45,761.81 651.67,762.93 650.77,763.83 C649.88,764.72 650.94,765.00 655.31,765.00 L 661.01 765.00 L 658.23 761.16 ZM 291.00 693.95 C313.34,690.39 328.00,672.97 328.00,650.00 C328.00,627.76 314.52,610.95 293.57,607.09 C280.74,604.73 265.02,606.40 255.79,611.11 C249.53,614.30 241.13,622.81 237.88,629.24 C234.03,636.86 232.55,647.51 233.94,657.51 C237.50,683.09 261.80,698.61 291.00,693.95 ZM 398.00 693.93 C403.62,693.02 416.00,688.48 416.00,687.33 C416.00,687.11 414.88,684.72 413.51,682.02 L 411.02 677.10 L 405.26 679.80 C400.33,682.11 398.20,682.50 390.50,682.49 C380.44,682.48 375.97,680.82 370.00,674.84 C364.12,668.96 362.61,664.03 362.55,650.50 C362.51,640.03 362.80,637.85 364.81,633.39 C367.73,626.95 373.23,621.53 378.88,619.54 C386.41,616.89 399.22,617.71 408.06,621.41 C409.23,621.90 410.23,620.79 411.98,617.04 C413.28,614.27 414.10,611.77 413.81,611.48 C413.52,611.19 410.63,609.99 407.39,608.83 C395.06,604.40 373.82,605.48 362.80,611.10 C356.07,614.54 348.28,622.64 344.72,629.93 C341.58,636.34 341.50,636.83 341.50,650.00 C341.50,662.69 341.67,663.86 344.30,669.50 C352.93,688.02 374.35,697.76 398.00,693.93 ZM 594.20 691.93 C610.61,686.41 620.73,674.24 623.24,657.03 C628.04,624.05 603.57,601.41 567.86,605.80 C545.86,608.51 531.56,621.94 528.82,642.47 C526.70,658.31 531.04,672.02 541.22,681.65 C548.62,688.64 556.24,692.27 568.00,694.41 C573.31,695.37 588.16,693.97 594.20,691.93 ZM 450.00 674.50 L 450.00 655.00 L 470.48 655.00 L 490.96 655.00 L 491.23 674.25 L 491.50 693.50 L 501.21 693.79 L 510.92 694.07 L 510.98 650.54 L 511.03 607.00 L 501.02 607.00 L 491.00 607.00 L 491.00 625.00 L 491.00 643.00 L 470.50 643.00 L 450.00 643.00 L 450.00 625.00 L 450.00 607.00 L 440.00 607.00 L 430.00 607.00 L 430.00 649.83 C430.00,673.39 430.30,692.97 430.67,693.33 C431.03,693.70 435.53,694.00 440.67,694.00 L 450.00 694.00 L 450.00 674.50 ZM 690.35 693.05 C704.40,691.24 712.07,684.25 712.81,672.58 C713.51,661.59 709.14,653.74 700.45,650.43 C698.00,649.49 696.00,648.45 696.00,648.11 C696.00,647.78 697.68,646.60 699.73,645.50 C710.08,639.94 711.70,621.21 702.53,613.16 C696.96,608.27 693.67,607.73 666.25,607.26 L 641.00 606.82 L 641.00 649.75 C641.00,673.35 641.30,692.97 641.67,693.33 C642.65,694.31 682.35,694.08 690.35,693.05 ZM 739.78 684.25 L 743.26 675.00 L 761.52 675.00 L 779.78 675.00 L 783.05 683.25 C784.85,687.79 786.75,692.06 787.28,692.75 C788.37,694.16 806.53,694.56 807.38,693.20 C807.65,692.76 800.11,673.30 790.62,649.95 L 773.37 607.50 L 764.94 607.22 L 756.50 606.93 L 739.24 649.72 C729.74,673.25 721.98,692.86 721.99,693.29 C721.99,693.73 725.22,693.96 729.15,693.79 L 736.30 693.50 L 739.78 684.25 ZM 557.50 542.57 C595.19,535.78 623.01,522.03 646.57,498.54 C672.56,472.63 685.82,442.50 689.18,401.73 C691.88,369.00 686.08,336.10 673.01,309.96 C663.72,291.39 644.11,269.25 626.24,257.15 C598.86,238.61 568.55,229.58 529.50,228.32 C483.30,226.84 445.53,236.38 415.31,257.17 C399.16,268.28 380.32,288.67 371.30,304.79 C357.63,329.24 352.00,353.10 352.00,386.62 C352.00,423.50 359.47,450.74 376.76,476.88 C383.96,487.78 398.96,503.33 411.00,512.40 C432.69,528.74 463.72,540.46 494.57,543.96 C506.92,545.37 546.91,544.48 557.50,542.57 ZM 399.14 763.74 C396.95,762.59 396.78,761.91 396.79,754.31 C396.80,749.80 397.10,745.64 397.46,745.06 C398.63,743.17 404.56,743.85 406.60,746.10 C409.58,749.40 409.27,759.02 406.08,762.42 C403.34,765.33 402.49,765.49 399.14,763.74 ZM 718.65 763.73 C717.19,762.66 716.96,761.07 717.21,753.48 L 717.50 744.50 L 720.82 744.18 C724.85,743.79 726.54,745.07 728.05,749.65 C729.55,754.19 728.47,759.62 725.48,762.61 C722.79,765.31 721.16,765.57 718.65,763.73 ZM 701.78 762.94 C697.91,760.68 697.21,749.51 700.60,744.25 C702.31,741.59 707.09,741.20 709.05,743.57 C711.01,745.92 710.97,761.77 709.00,763.02 C707.07,764.24 703.96,764.21 701.78,762.94 ZM 311.92 761.40 C310.82,760.08 310.84,759.38 312.05,757.26 C312.85,755.86 314.51,754.05 315.75,753.24 C317.98,751.77 318.00,751.80 318.00,756.77 C318.00,760.42 317.57,761.95 316.42,762.39 C314.05,763.30 313.37,763.15 311.92,761.40 ZM 429.78 763.78 C425.95,760.87 424.55,748.52 427.56,744.22 C429.64,741.25 433.53,741.35 435.54,744.42 C438.06,748.27 438.46,756.85 436.31,761.00 C434.31,764.87 432.32,765.71 429.78,763.78 ZM 492.23 764.33 C489.85,763.37 488.00,758.11 488.00,752.27 C488.00,745.14 489.96,741.74 493.82,742.19 C497.45,742.62 498.97,746.16 498.99,754.25 C499.00,759.68 498.61,761.39 497.00,763.00 C494.94,765.06 494.41,765.21 492.23,764.33 ZM 673.26 763.47 C670.90,761.82 669.01,756.42 669.01,751.30 C668.99,743.74 674.12,739.67 678.34,743.90 C681.34,746.90 681.51,759.66 678.60,762.89 C676.32,765.41 676.07,765.44 673.26,763.47 ZM 745.00 748.55 C745.00,748.30 745.53,746.94 746.17,745.52 C748.42,740.58 755.00,741.40 755.00,746.62 C755.00,748.81 754.60,749.00 750.00,749.00 C747.25,749.00 745.00,748.80 745.00,748.55 ZM 273.99 682.07 C263.31,678.82 256.90,670.36 255.01,657.05 C252.44,638.98 259.69,622.57 271.84,618.93 C273.98,618.29 279.13,617.94 283.30,618.15 C293.47,618.66 298.06,621.75 303.00,631.44 C306.41,638.11 306.50,638.61 306.50,649.92 C306.50,661.05 306.36,661.82 303.19,668.27 C299.67,675.41 295.59,679.31 289.25,681.57 C285.16,683.04 277.95,683.27 273.99,682.07 ZM 567.63 681.59 C561.64,679.36 556.79,674.86 553.51,668.49 C550.85,663.32 550.48,661.50 550.15,651.96 C549.65,637.20 551.40,631.29 558.35,624.36 C564.07,618.65 568.24,617.01 577.00,617.02 C593.07,617.03 602.48,629.49 602.30,650.50 C602.17,665.09 597.09,675.36 587.62,680.19 C582.42,682.84 572.80,683.52 567.63,681.59 ZM 661.00 668.50 L 661.00 655.00 L 672.05 655.00 C688.09,655.00 692.00,657.56 692.00,668.09 C692.00,678.61 686.90,682.00 671.03,682.00 L 661.00 682.00 L 661.00 668.50 ZM 661.00 631.00 L 661.00 619.00 L 672.08 619.00 C682.99,619.00 683.20,619.04 686.08,621.92 C688.58,624.43 689.00,625.62 689.00,630.20 C689.00,640.10 684.81,643.00 670.55,643.00 L 661.00 643.00 L 661.00 631.00 ZM 748.68 663.25 C748.05,662.17 760.37,630.71 761.58,630.31 C762.13,630.12 763.19,631.66 763.92,633.74 C764.66,635.81 767.45,643.06 770.13,649.86 C772.81,656.66 775.00,662.62 775.00,663.11 C775.00,664.18 749.30,664.32 748.68,663.25 ZM 508.47 501.03 C498.08,499.55 489.81,497.03 480.50,492.51 C453.86,479.57 436.07,451.84 430.55,414.68 C428.75,402.55 428.48,373.69 430.04,360.97 C433.53,332.68 444.54,308.99 461.53,293.20 C477.94,277.95 494.64,272.00 521.00,272.00 C536.41,272.00 545.02,273.41 556.34,277.81 C576.54,285.66 594.24,304.45 603.13,327.49 C617.50,364.75 615.68,420.82 599.03,454.00 C590.12,471.74 575.16,486.52 558.41,494.11 C545.26,500.08 523.25,503.12 508.47,501.03 Z" fill="rgb(241,238,229)"/>
</g>
</svg>